<svg version="1.1" id="Layer_1" xmlns="http://www.w3.org/2000/svg" xmlns:xlink="http://www.w3.org/1999/xlink" x="0px" y="0px"
	 width="100%" viewBox="0 0 400 400" enable-background="new 0 0 400 400" xml:space="preserve">
<path fill="#000000" opacity="1.000000" stroke="none" 
	d="
M217.000000,401.000000 
	C144.689117,401.000000 72.878220,401.000000 1.033666,401.000000 
	C1.033666,267.730774 1.033666,134.461548 1.033666,1.096156 
	C134.227509,1.096156 267.455109,1.096156 400.841370,1.096156 
	C400.841370,134.333191 400.841370,267.666565 400.841370,401.000000 
	C339.794952,401.000000 278.647461,401.000000 217.000000,401.000000 
M288.132629,235.717621 
	C287.435669,235.439987 286.738708,235.162354 285.894623,234.437546 
	C285.710693,234.153824 285.450653,233.993820 284.833771,233.361938 
	C283.903107,232.869537 282.972412,232.377121 281.788696,231.301498 
	C280.897308,230.186844 280.005890,229.072189 278.833771,227.361954 
	C277.903107,226.869537 276.972412,226.377136 275.975739,225.433746 
	C275.975739,225.433746 275.833344,225.000763 275.721527,224.306931 
	C274.516510,221.854752 273.311523,219.402588 272.021088,216.022766 
	C272.014069,214.025925 272.001862,212.029083 272.000946,210.032242 
	C271.998260,204.041565 272.440063,198.011002 271.901611,192.069107 
	C270.988922,181.997543 276.951111,176.016113 283.368774,169.726135 
	C288.519348,164.678040 294.347565,163.773285 301.001678,163.940842 
	C310.314606,164.175339 319.655457,163.638611 328.952209,164.091797 
	C340.482666,164.653839 347.546295,156.317795 347.892517,145.930710 
	C348.291229,133.967789 347.888153,121.978119 347.953369,109.397331 
	C347.671051,108.915001 347.388733,108.432663 347.020721,107.173210 
	C345.051971,103.767990 343.083221,100.362770 340.812592,96.338951 
	C339.222321,95.520874 337.632019,94.702797 335.516541,93.201218 
	C322.344482,93.189705 309.172455,93.178185 295.213287,93.029190 
	C292.081604,92.178764 288.949921,91.328346 285.738953,90.246239 
	C285.738953,90.246239 285.505951,90.170868 285.132599,89.717613 
	C284.435638,89.439980 283.738708,89.162346 282.763519,88.284142 
	C279.880676,85.175415 276.997803,82.066696 274.009186,78.360458 
	C273.708252,77.890411 273.407318,77.420357 273.014801,76.299156 
	C272.954315,75.866127 272.893829,75.433098 272.953369,74.397331 
	C272.671051,73.914993 272.388733,73.432663 272.021088,72.022682 
	C272.014038,59.928082 271.767090,47.826912 272.097900,35.741562 
	C272.271759,29.390850 270.243195,24.564707 264.785858,20.310623 
	C262.537903,19.502089 260.289978,18.693554 257.516846,17.201426 
	C244.011368,17.189840 230.505875,17.178253 216.238419,17.060030 
	C213.127335,18.686581 210.016251,20.313131 206.967987,21.970415 
	C206.967987,21.970415 206.937439,21.907495 206.300171,22.210001 
	C204.589005,25.140133 202.877823,28.070265 201.033081,31.929268 
	C201.022125,45.585602 200.985825,59.242035 201.039078,72.898117 
	C201.044479,74.280540 201.590179,75.660851 201.998840,77.758537 
	C203.985092,80.210548 205.971359,82.662567 208.221970,85.699127 
	C209.133270,86.170288 210.044571,86.641441 211.325577,87.715538 
	C212.883575,88.088135 214.441574,88.460732 216.928543,88.966911 
	C230.604324,89.015472 244.280090,89.064034 258.323151,89.714104 
	C260.534637,90.847603 262.746155,91.981094 265.235077,93.714455 
	C268.118439,96.490349 271.001801,99.266243 274.005341,102.793846 
	C274.725800,105.196030 275.446228,107.598213 276.033051,110.929268 
	C276.077576,123.619446 276.122101,136.309631 276.010773,149.734177 
	C274.635651,152.475327 273.260529,155.216476 271.223877,158.297089 
	C270.204834,159.383804 269.185791,160.470520 267.990540,162.102859 
	C264.993744,163.457458 261.996918,164.812057 258.071167,166.033081 
	C244.047577,166.077606 230.023987,166.122131 215.259445,166.056000 
	C212.474686,167.683899 209.689911,169.311798 206.967972,170.970459 
	C206.967972,170.970459 206.937454,170.907516 206.300171,171.209991 
	C204.589005,174.140121 202.877823,177.070251 201.033081,180.929276 
	C201.022141,194.585602 200.985809,208.242020 201.039093,221.898102 
	C201.044479,223.280518 201.590179,224.660843 201.998840,226.758530 
	C203.985107,229.210541 205.971375,231.662552 208.221939,234.699097 
	C209.133224,235.170227 210.044495,235.641357 211.235916,236.657166 
	C211.823822,236.715897 212.411713,236.774612 213.644867,236.971024 
	C214.081833,237.018173 214.518814,237.065338 215.235916,237.657166 
	C215.823822,237.715881 216.411713,237.774612 217.928574,237.966934 
	C233.270996,238.015472 248.613419,238.064011 264.307098,238.711288 
	C267.518005,241.172501 270.728882,243.633713 273.963928,246.033600 
	C273.963928,246.033600 273.902679,246.057953 274.010162,246.809067 
	C274.729004,249.206177 275.447815,251.603287 276.033081,254.929276 
	C276.077606,267.952789 276.122131,280.976318 276.010223,294.740601 
	C273.641846,298.807007 271.273499,302.873383 268.967896,306.970398 
	C268.967896,306.970398 268.937500,306.907532 268.307129,307.203369 
	C264.538116,309.191132 260.769135,311.178894 256.071167,313.033081 
	C242.714249,313.077606 229.357315,313.122131 215.259445,313.056000 
	C212.474670,314.683929 209.689880,316.311829 206.967911,317.970459 
	C206.967911,317.970459 206.937408,317.907562 206.300140,318.210022 
	C204.588989,321.140137 202.877823,324.070251 201.033081,327.929260 
	C201.022125,341.585571 200.985809,355.242004 201.039093,368.898071 
	C201.044479,370.280487 201.590164,371.660828 201.998978,373.760498 
	C203.999573,376.451447 206.000168,379.142395 208.596771,382.120972 
	C209.383102,382.451477 210.169449,382.781982 211.235931,383.657166 
	C211.823822,383.715881 212.411728,383.774628 213.644867,383.970978 
	C214.081833,384.018158 214.518814,384.065308 215.235931,384.657166 
	C215.823822,384.715912 216.411728,384.774628 217.928574,384.966919 
	C230.093521,384.977631 242.259430,385.088135 254.423096,384.968567 
	C264.831085,384.866302 271.996857,377.455658 271.999451,367.106018 
	C272.001984,357.107330 271.999634,347.108643 272.000061,337.109955 
	C272.000702,321.690826 284.690826,309.026215 300.182495,309.002808 
	C309.847870,308.988190 319.570618,308.341400 329.163330,309.176422 
	C339.765198,310.099304 347.878937,300.783844 347.977936,290.205688 
	C348.076202,279.708008 348.330078,269.194275 347.873688,258.715515 
	C347.605225,252.551254 346.379517,246.321091 340.796478,241.321716 
	C338.878326,240.509491 336.960175,239.697250 334.516846,238.201431 
	C321.678040,238.189835 308.839203,238.178238 295.240509,238.029892 
	C293.099701,237.512482 290.958862,236.995071 288.738831,236.246140 
	C288.738831,236.246140 288.505981,236.170883 288.132629,235.717621 
M58.338573,182.251678 
	C56.947937,185.834579 55.557304,189.417496 54.033104,193.928619 
	C54.317112,200.299789 54.601120,206.670944 54.977554,213.815170 
	C56.616375,216.893463 58.255196,219.971771 60.194160,223.670776 
	C63.078587,225.459610 65.792961,228.328186 68.882477,228.814789 
	C75.522530,229.860565 82.355537,229.920166 89.110199,229.929794 
	C95.414337,229.938797 100.626526,231.920715 105.007805,236.460999 
	C109.981094,241.614792 115.144325,246.584717 120.168320,251.690338 
	C124.000954,255.585220 126.347046,260.066620 126.051231,265.793945 
	C125.802376,270.612091 125.759865,275.468048 126.053223,280.281189 
	C126.583923,288.988495 129.713303,296.343842 138.481979,299.731628 
	C148.199234,303.485901 158.145264,302.814880 168.073135,300.459229 
	C176.809219,298.386414 182.876877,288.924957 182.091064,280.988434 
	C181.601059,276.039307 182.001419,271.002197 181.999710,266.004578 
	C181.995697,254.240234 173.725861,246.003952 161.914505,246.000198 
	C157.583237,245.998825 153.244690,246.159210 148.922409,245.962036 
	C142.448639,245.666702 136.180786,244.426010 131.282883,239.732605 
	C126.232529,234.893082 121.179214,230.030869 116.498138,224.843826 
	C114.489540,222.618103 112.556221,219.687424 112.090408,216.832062 
	C110.933258,209.738953 110.730774,202.495346 109.972252,195.330429 
	C109.295609,188.938934 112.438118,183.936066 116.198395,179.554810 
	C121.033463,173.921265 126.299286,168.557541 131.969772,163.777802 
	C135.458160,160.837387 139.826675,158.183060 144.198441,157.232315 
	C150.243378,155.917648 156.742081,155.557388 162.904099,156.185272 
	C171.587769,157.070114 183.221771,145.548462 182.133148,136.969055 
	C181.425842,131.394836 182.008469,125.658020 181.997955,119.994072 
	C181.981613,111.195633 177.472443,103.969757 168.904099,102.157936 
	C160.949921,100.475983 152.465637,99.483871 144.460083,100.379944 
	C136.660751,101.252937 128.627548,105.419113 127.110313,116.466446 
	C126.103714,123.795700 126.077133,131.294113 126.083878,138.716370 
	C126.088737,144.068314 124.023354,148.307999 120.505585,151.952301 
	C115.068871,157.584595 109.615372,163.220688 103.843475,168.499222 
	C101.647102,170.507843 98.675682,172.430588 95.839722,172.824463 
	C89.330948,173.728470 82.691551,173.792938 76.099098,173.965912 
	C69.190285,174.147171 63.142559,175.943802 58.338573,182.251678 
z"/>
<path fill="#0F3EDC" opacity="1.000000" stroke="none" 
	d="
M265.114471,20.957531 
	C270.243195,24.564707 272.271759,29.390850 272.097900,35.741562 
	C271.767090,47.826912 272.014038,59.928082 271.981140,72.679840 
	C272.238586,73.891350 272.535980,74.445709 272.833344,75.000069 
	C272.893829,75.433098 272.954315,75.866127 272.992157,76.831375 
	C273.351318,77.895050 273.733154,78.426514 274.114960,78.957977 
	C276.997803,82.066696 279.880676,85.175415 283.075623,88.825867 
	C284.093811,89.635345 284.799866,89.903107 285.505951,90.170868 
	C285.505951,90.170868 285.738953,90.246239 285.760956,90.717316 
	C288.417175,95.664558 293.222198,96.594887 296.000397,93.166664 
	C309.172455,93.178185 322.344482,93.189705 335.928833,93.852829 
	C337.932251,95.322144 339.523346,96.139847 341.114471,96.957550 
	C343.083221,100.362770 345.051971,103.767990 346.980957,107.755096 
	C347.238586,108.891350 347.535950,109.445709 347.833313,110.000069 
	C347.888153,121.978119 348.291229,133.967789 347.892517,145.930710 
	C347.546295,156.317795 340.482666,164.653839 328.952209,164.091797 
	C319.655457,163.638611 310.314606,164.175339 301.001678,163.940842 
	C294.347565,163.773285 288.519348,164.678040 283.368774,169.726135 
	C276.951111,176.016113 270.988922,181.997543 271.901611,192.069107 
	C272.440063,198.011002 271.998260,204.041565 272.000946,210.032242 
	C272.001862,212.029083 272.014069,214.025925 271.948364,216.780182 
	C271.802765,220.763535 272.105255,223.790451 275.833344,225.000763 
	C275.833344,225.000763 275.975739,225.433746 276.172180,225.938965 
	C277.283936,226.948639 278.199188,227.453094 279.114471,227.957550 
	C280.005890,229.072189 280.897308,230.186844 282.078674,231.872849 
	C283.283936,232.948654 284.199188,233.453094 285.114471,233.957550 
	C285.450653,233.993820 285.710693,234.153824 286.141174,234.902588 
	C287.093781,235.635361 287.799896,235.903122 288.505981,236.170883 
	C288.505981,236.170883 288.738831,236.246140 288.763000,236.712555 
	C291.240997,241.199799 293.393433,241.494507 296.000397,238.166656 
	C308.839203,238.178238 321.678040,238.189835 334.873535,238.898422 
	C337.191650,240.382782 339.153076,241.170166 341.114471,241.957550 
	C346.379517,246.321091 347.605225,252.551254 347.873688,258.715515 
	C348.330078,269.194275 348.076202,279.708008 347.977936,290.205688 
	C347.878937,300.783844 339.765198,310.099304 329.163330,309.176422 
	C319.570618,308.341400 309.847870,308.988190 300.182495,309.002808 
	C284.690826,309.026215 272.000702,321.690826 272.000061,337.109955 
	C271.999634,347.108643 272.001984,357.107330 271.999451,367.106018 
	C271.996857,377.455658 264.831085,384.866302 254.423096,384.968567 
	C242.259430,385.088135 230.093521,384.977631 217.353851,384.717407 
	C216.171341,384.349396 215.563568,384.230927 214.955780,384.112457 
	C214.518814,384.065308 214.081833,384.018158 213.211990,383.719421 
	C212.171341,383.349426 211.563553,383.230957 210.955780,383.112488 
	C210.169449,382.781982 209.383102,382.451477 208.274231,381.608398 
	C207.171494,377.475708 206.194397,374.003906 201.885132,373.042114 
	C201.590164,371.660828 201.044479,370.280487 201.039093,368.898071 
	C200.985809,355.242004 201.022125,341.585571 201.451813,327.432434 
	C206.505157,325.579437 207.864929,322.385376 206.937408,317.907562 
	C206.937408,317.907562 206.967911,317.970459 207.359711,317.961761 
	C211.259964,317.665375 215.428741,318.515656 216.000397,313.166656 
	C229.357315,313.122131 242.714249,313.077606 256.668274,313.395142 
	C259.295807,314.037048 261.875183,315.226807 263.239868,314.403412 
	C265.905182,312.795166 270.033569,311.616364 268.937500,306.907532 
	C268.937500,306.907532 268.967896,306.970398 269.325745,306.951416 
	C274.925995,306.160034 276.957703,302.161377 278.258881,297.826569 
	C278.552460,296.848419 276.915131,295.290741 276.166656,293.999847 
	C276.122131,280.976318 276.077606,267.952789 276.404297,254.378876 
	C279.382629,250.332184 278.566986,248.126022 273.902679,246.057953 
	C273.902679,246.057953 273.963928,246.033600 273.937561,245.686035 
	C272.580170,240.676651 268.904694,238.008881 263.955841,238.112549 
	C248.613419,238.064011 233.270996,238.015472 217.353851,237.717407 
	C216.171356,237.349411 215.563568,237.230957 214.955780,237.112488 
	C214.518814,237.065338 214.081833,237.018173 213.212006,236.719452 
	C212.171356,236.349411 211.563568,236.230942 210.955780,236.112488 
	C210.044495,235.641357 209.133224,235.170227 208.045166,234.039307 
	C205.873978,230.933731 203.879562,228.487930 201.885147,226.042130 
	C201.590179,224.660843 201.044479,223.280518 201.039093,221.898102 
	C200.985809,208.242020 201.022141,194.585602 201.451813,180.432434 
	C206.505096,178.579422 207.864975,175.385361 206.937454,170.907516 
	C206.937454,170.907516 206.967972,170.970459 207.359741,170.961731 
	C211.260040,170.665466 215.428680,171.515549 216.000397,166.166656 
	C230.023987,166.122131 244.047577,166.077606 258.668335,166.395294 
	C262.044983,168.808792 268.167542,167.963043 269.482971,165.063934 
	C269.847870,164.259674 268.648438,162.745621 268.166718,161.557220 
	C269.185791,160.470520 270.204834,159.383804 271.950195,158.122345 
	C274.523560,156.518661 276.773895,155.363678 278.021210,153.527374 
	C278.527527,152.782013 276.850311,150.553467 276.166626,148.999802 
	C276.122101,136.309631 276.077576,123.619446 276.404327,110.378830 
	C279.383270,106.322319 278.567749,104.125549 273.885162,102.042145 
	C271.001801,99.266243 268.118439,96.490349 265.031799,93.068680 
	C263.642853,89.024895 261.172913,88.293205 257.955872,89.112595 
	C244.280090,89.064034 230.604324,89.015472 216.299088,88.647247 
	C214.098373,87.922592 212.527130,87.517593 210.955872,87.112595 
	C210.044571,86.641441 209.133270,86.170288 208.045197,85.039330 
	C205.873993,81.933739 203.879578,79.487938 201.885162,77.042137 
	C201.590179,75.660851 201.044479,74.280540 201.039078,72.898117 
	C200.985825,59.242035 201.022125,45.585602 201.451813,31.432442 
	C206.505081,29.579399 207.864990,26.385347 206.937439,21.907495 
	C206.937439,21.907495 206.967987,21.970415 207.365692,21.961605 
	C211.372421,21.380322 216.074387,22.917181 217.000397,17.166666 
	C230.505875,17.178253 244.011368,17.189840 257.876312,17.901180 
	C260.528687,19.386467 262.821564,20.171999 265.114471,20.957531 
z"/>
<path fill="#0F3EDC" opacity="1.000000" stroke="none" 
	d="
M54.885128,213.042114 
	C54.601120,206.670944 54.317112,200.299789 54.453087,193.423584 
	C59.047951,190.669312 60.875431,185.729782 58.953106,181.890503 
	C63.142559,175.943802 69.190285,174.147171 76.099098,173.965912 
	C82.691551,173.792938 89.330948,173.728470 95.839722,172.824463 
	C98.675682,172.430588 101.647102,170.507843 103.843475,168.499222 
	C109.615372,163.220688 115.068871,157.584595 120.505585,151.952301 
	C124.023354,148.307999 126.088737,144.068314 126.083878,138.716370 
	C126.077133,131.294113 126.103714,123.795700 127.110313,116.466446 
	C128.627548,105.419113 136.660751,101.252937 144.460083,100.379944 
	C152.465637,99.483871 160.949921,100.475983 168.904099,102.157936 
	C177.472443,103.969757 181.981613,111.195633 181.997955,119.994072 
	C182.008469,125.658020 181.425842,131.394836 182.133148,136.969055 
	C183.221771,145.548462 171.587769,157.070114 162.904099,156.185272 
	C156.742081,155.557388 150.243378,155.917648 144.198441,157.232315 
	C139.826675,158.183060 135.458160,160.837387 131.969772,163.777802 
	C126.299286,168.557541 121.033463,173.921265 116.198395,179.554810 
	C112.438118,183.936066 109.295609,188.938934 109.972252,195.330429 
	C110.730774,202.495346 110.933258,209.738953 112.090408,216.832062 
	C112.556221,219.687424 114.489540,222.618103 116.498138,224.843826 
	C121.179214,230.030869 126.232529,234.893082 131.282883,239.732605 
	C136.180786,244.426010 142.448639,245.666702 148.922409,245.962036 
	C153.244690,246.159210 157.583237,245.998825 161.914505,246.000198 
	C173.725861,246.003952 181.995697,254.240234 181.999710,266.004578 
	C182.001419,271.002197 181.601059,276.039307 182.091064,280.988434 
	C182.876877,288.924957 176.809219,298.386414 168.073135,300.459229 
	C158.145264,302.814880 148.199234,303.485901 138.481979,299.731628 
	C129.713303,296.343842 126.583923,288.988495 126.053223,280.281189 
	C125.759865,275.468048 125.802376,270.612091 126.051231,265.793945 
	C126.347046,260.066620 124.000954,255.585220 120.168320,251.690338 
	C115.144325,246.584717 109.981094,241.614792 105.007805,236.460999 
	C100.626526,231.920715 95.414337,229.938797 89.110199,229.929794 
	C82.355537,229.920166 75.522530,229.860565 68.882477,228.814789 
	C65.792961,228.328186 63.078587,225.459610 60.172928,223.080109 
	C59.427994,218.765121 59.235012,214.744949 54.885128,213.042114 
z"/>
<path fill="#0F3EDC" opacity="1.000000" stroke="none" 
	d="
M276.088440,294.370239 
	C276.915131,295.290741 278.552460,296.848419 278.258881,297.826569 
	C276.957703,302.161377 274.925995,306.160034 269.294373,306.936096 
	C271.273499,302.873383 273.641846,298.807007 276.088440,294.370239 
z"/>
<path fill="#0F3EDC" opacity="1.000000" stroke="none" 
	d="
M268.622314,307.055450 
	C270.033569,311.616364 265.905182,312.795166 263.239868,314.403412 
	C261.875183,315.226807 259.295807,314.037048 257.132751,313.461914 
	C260.769135,311.178894 264.538116,309.191132 268.622314,307.055450 
z"/>
<path fill="#0F3EDC" opacity="1.000000" stroke="none" 
	d="
M268.078613,161.830048 
	C268.648438,162.745621 269.847870,164.259674 269.482971,165.063934 
	C268.167542,167.963043 262.044983,168.808792 259.132812,166.462082 
	C261.996918,164.812057 264.993744,163.457458 268.078613,161.830048 
z"/>
<path fill="#0F3EDC" opacity="1.000000" stroke="none" 
	d="
M58.645840,182.071091 
	C60.875431,185.729782 59.047951,190.669312 54.519871,192.959473 
	C55.557304,189.417496 56.947937,185.834579 58.645840,182.071091 
z"/>
<path fill="#0F3EDC" opacity="1.000000" stroke="none" 
	d="
M206.618805,22.058748 
	C207.864990,26.385347 206.505081,29.579399 201.518600,30.968006 
	C202.877823,28.070265 204.589005,25.140133 206.618805,22.058748 
z"/>
<path fill="#0F3EDC" opacity="1.000000" stroke="none" 
	d="
M206.618774,318.058777 
	C207.864929,322.385376 206.505157,325.579437 201.518600,326.967957 
	C202.877823,324.070251 204.588989,321.140137 206.618774,318.058777 
z"/>
<path fill="#0F3EDC" opacity="1.000000" stroke="none" 
	d="
M276.088715,149.366989 
	C276.850311,150.553467 278.527527,152.782013 278.021210,153.527374 
	C276.773895,155.363678 274.523560,156.518661 272.280945,157.952606 
	C273.260529,155.216476 274.635651,152.475327 276.088715,149.366989 
z"/>
<path fill="#0F3EDC" opacity="1.000000" stroke="none" 
	d="
M206.618805,171.058746 
	C207.864975,175.385361 206.505096,178.579422 201.518585,179.968002 
	C202.877823,177.070251 204.589005,174.140121 206.618805,171.058746 
z"/>
<path fill="#0F3EDC" opacity="1.000000" stroke="none" 
	d="
M295.606842,93.097931 
	C293.222198,96.594887 288.417175,95.664558 285.800598,90.833153 
	C288.949921,91.328346 292.081604,92.178764 295.606842,93.097931 
z"/>
<path fill="#0F3EDC" opacity="1.000000" stroke="none" 
	d="
M216.619415,17.113348 
	C216.074387,22.917181 211.372421,21.380322 207.334290,21.946238 
	C210.016251,20.313131 213.127335,18.686581 216.619415,17.113348 
z"/>
<path fill="#0F3EDC" opacity="1.000000" stroke="none" 
	d="
M215.629913,313.111328 
	C215.428741,318.515656 211.259964,317.665375 207.328308,317.946411 
	C209.689880,316.311829 212.474670,314.683929 215.629913,313.111328 
z"/>
<path fill="#0F3EDC" opacity="1.000000" stroke="none" 
	d="
M54.931343,213.428650 
	C59.235012,214.744949 59.427994,218.765121 60.022854,222.769745 
	C58.255196,219.971771 56.616375,216.893463 54.931343,213.428650 
z"/>
<path fill="#0F3EDC" opacity="1.000000" stroke="none" 
	d="
M215.629913,166.111328 
	C215.428680,171.515549 211.260040,170.665466 207.328339,170.946350 
	C209.689911,169.311798 212.474686,167.683899 215.629913,166.111328 
z"/>
<path fill="#0F3EDC" opacity="1.000000" stroke="none" 
	d="
M264.131470,238.411926 
	C268.904694,238.008881 272.580170,240.676651 273.925507,245.716705 
	C270.728882,243.633713 267.518005,241.172501 264.131470,238.411926 
z"/>
<path fill="#0F3EDC" opacity="1.000000" stroke="none" 
	d="
M273.956421,246.433502 
	C278.566986,248.126022 279.382629,250.332184 276.471069,253.914429 
	C275.447815,251.603287 274.729004,249.206177 273.956421,246.433502 
z"/>
<path fill="#0F3EDC" opacity="1.000000" stroke="none" 
	d="
M273.945251,102.417992 
	C278.567749,104.125549 279.383270,106.322319 276.471130,109.914398 
	C275.446228,107.598213 274.725800,105.196030 273.945251,102.417992 
z"/>
<path fill="#0F3EDC" opacity="1.000000" stroke="none" 
	d="
M295.620453,238.098267 
	C293.393433,241.494507 291.240997,241.199799 288.802612,236.828339 
	C290.958862,236.995071 293.099701,237.512482 295.620453,238.098267 
z"/>
<path fill="#0F3EDC" opacity="1.000000" stroke="none" 
	d="
M201.942047,373.401306 
	C206.194397,374.003906 207.171494,377.475708 207.976227,381.464600 
	C206.000168,379.142395 203.999573,376.451447 201.942047,373.401306 
z"/>
<path fill="#0F3EDC" opacity="1.000000" stroke="none" 
	d="
M201.942001,77.400337 
	C203.879578,79.487938 205.873993,81.933739 207.913025,84.747055 
	C205.971359,82.662567 203.985092,80.210548 201.942001,77.400337 
z"/>
<path fill="#0F3EDC" opacity="1.000000" stroke="none" 
	d="
M201.941986,226.400330 
	C203.879562,228.487930 205.873978,230.933731 207.913010,233.747040 
	C205.971375,231.662552 203.985107,229.210541 201.941986,226.400330 
z"/>
<path fill="#0F3EDC" opacity="1.000000" stroke="none" 
	d="
M264.950165,20.634075 
	C262.821564,20.171999 260.528687,19.386467 258.138916,18.242977 
	C260.289978,18.693554 262.537903,19.502089 264.950165,20.634075 
z"/>
<path fill="#0F3EDC" opacity="1.000000" stroke="none" 
	d="
M275.777435,224.653839 
	C272.105255,223.790451 271.802765,220.763535 271.991089,217.243988 
	C273.311523,219.402588 274.516510,221.854752 275.777435,224.653839 
z"/>
<path fill="#0F3EDC" opacity="1.000000" stroke="none" 
	d="
M340.955475,241.639633 
	C339.153076,241.170166 337.191650,240.382782 335.136139,239.240219 
	C336.960175,239.697250 338.878326,240.509491 340.955475,241.639633 
z"/>
<path fill="#0F3EDC" opacity="1.000000" stroke="none" 
	d="
M258.139526,89.413345 
	C261.172913,88.293205 263.642853,89.024895 264.893066,92.768753 
	C262.746155,91.981094 260.534637,90.847603 258.139526,89.413345 
z"/>
<path fill="#0F3EDC" opacity="1.000000" stroke="none" 
	d="
M211.140717,87.414062 
	C212.527130,87.517593 214.098373,87.922592 215.834595,88.580460 
	C214.441574,88.460732 212.883575,88.088135 211.140717,87.414062 
z"/>
<path fill="#0F3EDC" opacity="1.000000" stroke="none" 
	d="
M340.963531,96.648254 
	C339.523346,96.139847 337.932251,95.322144 336.191437,94.194580 
	C337.632019,94.702797 339.222321,95.520874 340.963531,96.648254 
z"/>
<path fill="#0F3EDC" opacity="1.000000" stroke="none" 
	d="
M278.974121,227.659760 
	C278.199188,227.453094 277.283936,226.948639 276.205200,226.164459 
	C276.972412,226.377136 277.903107,226.869537 278.974121,227.659760 
z"/>
<path fill="#0F3EDC" opacity="1.000000" stroke="none" 
	d="
M284.974121,233.659744 
	C284.199188,233.453094 283.283936,232.948654 282.205200,232.164459 
	C282.972412,232.377121 283.903107,232.869537 284.974121,233.659744 
z"/>
<path fill="#0F3EDC" opacity="1.000000" stroke="none" 
	d="
M215.095856,237.384827 
	C215.563568,237.230957 216.171356,237.349411 216.889374,237.650604 
	C216.411713,237.774612 215.823822,237.715881 215.095856,237.384827 
z"/>
<path fill="#0F3EDC" opacity="1.000000" stroke="none" 
	d="
M288.319305,235.944244 
	C287.799896,235.903122 287.093781,235.635361 286.214722,235.126160 
	C286.738708,235.162354 287.435669,235.439987 288.319305,235.944244 
z"/>
<path fill="#0F3EDC" opacity="1.000000" stroke="none" 
	d="
M211.095856,236.384827 
	C211.563568,236.230942 212.171356,236.349411 212.889374,236.650604 
	C212.411713,236.774612 211.823822,236.715897 211.095856,236.384827 
z"/>
<path fill="#0F3EDC" opacity="1.000000" stroke="none" 
	d="
M272.893372,74.698700 
	C272.535980,74.445709 272.238586,73.891350 272.023804,73.143661 
	C272.388733,73.432663 272.671051,73.914993 272.893372,74.698700 
z"/>
<path fill="#0F3EDC" opacity="1.000000" stroke="none" 
	d="
M347.893372,109.698700 
	C347.535950,109.445709 347.238586,108.891350 347.023804,108.143661 
	C347.388733,108.432663 347.671051,108.915001 347.893372,109.698700 
z"/>
<path fill="#0F3EDC" opacity="1.000000" stroke="none" 
	d="
M274.062073,78.659218 
	C273.733154,78.426514 273.351318,77.895050 273.037964,77.156944 
	C273.407318,77.420357 273.708252,77.890411 274.062073,78.659218 
z"/>
<path fill="#0F3EDC" opacity="1.000000" stroke="none" 
	d="
M285.319275,89.944244 
	C284.799866,89.903107 284.093811,89.635345 283.214722,89.126144 
	C283.738708,89.162346 284.435638,89.439980 285.319275,89.944244 
z"/>
<path fill="#0F3EDC" opacity="1.000000" stroke="none" 
	d="
M211.095856,383.384827 
	C211.563553,383.230957 212.171341,383.349426 212.889374,383.650635 
	C212.411728,383.774628 211.823822,383.715881 211.095856,383.384827 
z"/>
<path fill="#0F3EDC" opacity="1.000000" stroke="none" 
	d="
M215.095856,384.384827 
	C215.563568,384.230927 216.171341,384.349396 216.889374,384.650604 
	C216.411728,384.774628 215.823822,384.715912 215.095856,384.384827 
z"/>
</svg>